<svg width="22" height="16" viewBox="0 0 22 16" fill="none" xmlns="http://www.w3.org/2000/svg">
<path d="M1.57143 0H9.42857C9.84534 0 10.245 0.168571 10.5397 0.468629C10.8344 0.768687 11 1.17565 11 1.6C11 2.02435 10.8344 2.43131 10.5397 2.73137C10.245 3.03143 9.84534 3.2 9.42857 3.2H1.57143C1.15466 3.2 0.754961 3.03143 0.460261 2.73137C0.165561 2.43131 0 2.02435 0 1.6C0 1.17565 0.165561 0.768687 0.460261 0.468629C0.754961 0.168571 1.15466 0 1.57143 0ZM12.5714 12.8H20.4286C20.8453 12.8 21.245 12.9686 21.5397 13.2686C21.8344 13.5687 22 13.9757 22 14.4C22 14.8243 21.8344 15.2313 21.5397 15.5314C21.245 15.8314 20.8453 16 20.4286 16H12.5714C12.1547 16 11.755 15.8314 11.4603 15.5314C11.1656 15.2313 11 14.8243 11 14.4C11 13.9757 11.1656 13.5687 11.4603 13.2686C11.755 12.9686 12.1547 12.8 12.5714 12.8ZM1.57143 6.4H20.4286C20.8453 6.4 21.245 6.56857 21.5397 6.86863C21.8344 7.16869 22 7.57565 22 8C22 8.42435 21.8344 8.83131 21.5397 9.13137C21.245 9.43143 20.8453 9.6 20.4286 9.6H1.57143C1.15466 9.6 0.754961 9.43143 0.460261 9.13137C0.165561 8.83131 0 8.42435 0 8C0 7.57565 0.165561 7.16869 0.460261 6.86863C0.754961 6.56857 1.15466 6.4 1.57143 6.4Z" fill="black"/>
</svg>
